# 3ds Max Wavefront OBJ Exporter v0.97b - (c)2007 guruware
# File Created: 24.06.2015 23:15:03

mtllib LP_Celtic_Stone.mtl

#
# object LP_Celtic_Stone
#

v  -23.8808 -98.7656 12.4730
v  23.8692 -98.7595 12.4343
v  23.8803 98.7705 12.5046
v  -23.8768 98.7615 12.4525
v  23.8664 98.7791 -12.4403
v  23.8797 -98.7698 -12.5085
v  -23.8883 -98.7730 -12.5291
v  -23.8716 98.7552 -12.4371
v  -24.9923 -98.7478 11.2300
v  -25.0430 98.7530 11.2368
v  -25.0226 98.7454 -11.2413
v  -25.1183 -98.7676 -11.2593
v  -23.8045 99.9853 11.1133
v  23.8753 99.9915 11.2488
v  23.8266 100.0005 -11.2146
v  -23.6670 99.8925 -11.0088
v  25.1060 98.7664 11.2495
v  25.0215 -98.7533 11.2363
v  25.1319 -98.7706 -11.2623
v  25.0139 98.7338 -11.1758
v  23.8627 -99.9096 11.2359
v  -23.7984 -99.4652 11.1660
v  -23.8834 -100.0062 -11.2598
v  23.8749 -99.9874 -11.2568
v  -23.7385 99.6416 12.1989
v  -24.5564 99.5088 11.9309
v  -24.7746 98.7444 12.1606
v  -24.8165 -98.7698 12.1842
v  -24.4931 -99.3779 11.8608
v  -23.8299 -99.4576 11.9405
v  23.8486 -99.5648 12.0477
v  24.5345 -99.4248 11.9077
v  24.7350 -98.7526 12.1082
v  24.8542 98.7796 12.2274
v  24.4552 99.3455 11.8284
v  23.8541 99.5887 12.0721
v  -24.7510 98.7460 -12.1281
v  -24.4546 99.4655 -11.8240
v  -23.8515 99.6413 -12.1618
v  23.8269 99.5878 -12.2045
v  24.4682 99.3862 -11.8809
v  24.6956 98.7039 -12.0289
v  24.8128 -98.7702 -12.1945
v  24.5719 -99.4621 -11.9538
v  23.8708 -99.6629 -12.1545
v  -23.8943 -99.7421 -12.2338
v  -24.6248 -99.5096 -12.0012
v  -24.7489 -98.7545 -12.1253
v  -24.7944 -99.6791 -11.2564
v  -24.5074 -99.3922 11.1827
v  -24.7937 99.6535 11.1643
v  -24.7791 99.6042 -11.1643
v  24.7611 99.6514 11.2417
v  24.6007 99.6319 -11.0447
v  24.7234 -99.6137 11.2329
v  24.7705 -99.6608 -11.2523
# 56 vertices

vn -0.1327 -0.3065 0.9426
vn 0.1658 -0.2101 0.9635
vn 0.1585 0.2622 0.9519
vn -0.1663 0.1558 0.9737
vn 0.2373 0.1511 -0.9596
vn 0.1627 -0.1882 -0.9686
vn -0.2063 -0.1364 -0.9689
vn -0.1896 0.1733 -0.9665
vn -0.9516 -0.2973 0.0777
vn -0.9781 0.1457 0.1490
vn -0.9710 0.1665 -0.1719
vn -0.9715 -0.1532 -0.1808
vn -0.1522 0.9778 0.1441
vn 0.1934 0.9523 0.2359
vn 0.2223 0.9554 -0.1945
vn -0.1248 0.9863 -0.1079
vn 0.9624 0.2211 0.1581
vn 0.9728 -0.1667 0.1608
vn 0.9680 -0.1913 -0.1623
vn 0.9624 0.2098 -0.1726
vn 0.1521 -0.9694 0.1927
vn -0.0554 -0.9983 0.0192
vn -0.1721 -0.9774 -0.1231
vn 0.1720 -0.9707 -0.1679
vn -0.1480 0.6860 0.7123
vn -0.5639 0.6142 0.5520
vn -0.7052 0.1834 0.6849
vn -0.7138 -0.2911 0.6370
vn -0.4589 -0.8089 0.3676
vn -0.0779 -0.8905 0.4482
vn 0.1310 -0.7175 0.6841
vn 0.5538 -0.6009 0.5763
vn 0.7088 -0.1882 0.6798
vn 0.6714 0.3466 0.6550
vn 0.5265 0.6365 0.5637
vn 0.2420 0.6963 0.6757
vn -0.6988 0.2454 -0.6719
vn -0.5560 0.6594 -0.5060
vn -0.2526 0.7094 -0.6580
vn 0.2408 0.6449 -0.7253
vn 0.6421 0.5552 -0.5286
vn 0.7369 0.1733 -0.6534
vn 0.6890 -0.2133 -0.6926
vn 0.5631 -0.6045 -0.5635
vn 0.1824 -0.7054 -0.6849
vn -0.1980 -0.7033 -0.6827
vn -0.6211 -0.5437 -0.5645
vn -0.7150 -0.1098 -0.6904
vn -0.6997 -0.7000 -0.1426
vn -0.4926 -0.8699 0.0257
vn -0.7166 0.6792 0.1586
vn -0.6856 0.6955 -0.2150
vn 0.6764 0.6781 0.2875
vn 0.7036 0.6974 -0.1362
vn 0.6944 -0.6967 0.1800
vn 0.6832 -0.7081 -0.1783
# 56 vertex normals

vt 0.0071 0.3657 0.0000
vt 0.0071 0.1276 0.0000
vt 0.9933 0.1275 0.0000
vt 0.9933 0.3656 0.0000
vt 0.9932 0.7335 0.0000
vt 0.0071 0.7337 0.0000
vt 0.0070 0.4954 0.0000
vt 0.9931 0.4953 0.0000
vt 0.0071 0.3745 0.0000
vt 0.9932 0.3746 0.0000
vt 0.9931 0.4866 0.0000
vt 0.0070 0.4864 0.0000
vt 0.2447 0.8741 0.0000
vt 0.0068 0.8747 0.0000
vt 0.0071 0.7627 0.0000
vt 0.2441 0.7637 0.0000
vt 0.9932 0.1184 0.0000
vt 0.0071 0.1190 0.0000
vt 0.0070 0.0069 0.0000
vt 0.9929 0.0066 0.0000
vt 0.2726 0.7617 0.0000
vt 0.5106 0.7620 0.0000
vt 0.5107 0.8739 0.0000
vt 0.2726 0.8739 0.0000
vt 0.9979 0.3653 0.0000
vt 0.9971 0.3701 0.0000
vt 0.9930 0.3700 0.0000
vt 0.0073 0.3701 0.0000
vt 0.0037 0.3701 0.0000
vt 0.0028 0.3660 0.0000
vt 0.0026 0.1274 0.0000
vt 0.0036 0.1233 0.0000
vt 0.0072 0.1233 0.0000
vt 0.9930 0.1229 0.0000
vt 0.9967 0.1229 0.0000
vt 0.9979 0.1270 0.0000
vt 0.9929 0.4910 0.0000
vt 0.9969 0.4909 0.0000
vt 0.9977 0.4950 0.0000
vt 0.9974 0.7334 0.0000
vt 0.9966 0.7371 0.0000
vt 0.9929 0.7380 0.0000
vt 0.0069 0.7385 0.0000
vt 0.0031 0.7375 0.0000
vt 0.0023 0.7337 0.0000
vt 0.0020 0.4950 0.0000
vt 0.0032 0.4908 0.0000
vt 0.0071 0.4909 0.0000
vt 0.0022 0.4867 0.0000
vt 0.0031 0.3742 0.0000
vt 0.9979 0.3747 0.0000
vt 0.9976 0.4866 0.0000
vt 0.2451 0.7578 0.0000
vt 0.2483 0.7594 0.0000
vt 0.2498 0.7628 0.0000
vt 0.2499 0.8744 0.0000
vt 0.2487 0.8784 0.0000
vt 0.2445 0.8797 0.0000
vt 0.0067 0.8792 0.0000
vt 0.0033 0.8784 0.0000
vt 0.0021 0.8748 0.0000
vt 0.0028 0.7633 0.0000
vt 0.0033 0.7588 0.0000
vt 0.0069 0.7574 0.0000
vt 0.9929 0.0021 0.0000
vt 0.9966 0.0028 0.0000
vt 0.9978 0.0071 0.0000
vt 0.9980 0.1188 0.0000
vt 0.0025 0.1194 0.0000
vt 0.0023 0.0068 0.0000
vt 0.0031 0.0030 0.0000
vt 0.0069 0.0020 0.0000
vt 0.2724 0.8786 0.0000
vt 0.2687 0.8777 0.0000
vt 0.2679 0.8740 0.0000
vt 0.2681 0.7616 0.0000
vt 0.2690 0.7580 0.0000
vt 0.2726 0.7574 0.0000
vt 0.5107 0.7582 0.0000
vt 0.5141 0.7585 0.0000
vt 0.5142 0.7619 0.0000
vt 0.5153 0.8740 0.0000
vt 0.5148 0.8779 0.0000
vt 0.5109 0.8789 0.0000
# 84 texture coords

g LP_Celtic_Stone
usemtl wire_088144225
s 1
f 1/1/1 2/2/2 3/3/3 
f 3/3/3 4/4/4 1/1/1 
f 5/5/5 6/6/6 7/7/7 
f 7/7/7 8/8/8 5/5/5 
f 9/9/9 10/10/10 11/11/11 
f 11/11/11 12/12/12 9/9/9 
f 13/13/13 14/14/14 15/15/15 
f 15/15/15 16/16/16 13/13/13 
f 17/17/17 18/18/18 19/19/19 
f 19/19/19 20/20/20 17/17/17 
f 21/21/21 22/22/22 23/23/23 
f 23/23/23 24/24/24 21/21/21 
f 4/4/4 25/25/25 26/26/26 
f 26/26/26 27/27/27 4/4/4 
f 1/1/1 28/28/28 29/29/29 
f 29/29/29 30/30/30 1/1/1 
f 2/2/2 31/31/31 32/32/32 
f 32/32/32 33/33/33 2/2/2 
f 3/3/3 34/34/34 35/35/35 
f 35/35/35 36/36/36 3/3/3 
f 8/8/8 37/37/37 38/38/38 
f 38/38/38 39/39/39 8/8/8 
f 5/5/5 40/40/40 41/41/41 
f 41/41/41 42/42/42 5/5/5 
f 6/6/6 43/43/43 44/44/44 
f 44/44/44 45/45/45 6/6/6 
f 7/7/7 46/46/46 47/47/47 
f 47/47/47 48/48/48 7/7/7 
f 12/12/12 48/48/48 47/47/47 
f 47/47/47 49/49/49 12/12/12 
f 9/9/9 50/50/50 29/29/29 
f 29/29/29 28/28/28 9/9/9 
f 10/10/10 27/27/27 26/26/26 
f 26/26/26 51/51/51 10/10/10 
f 11/11/11 52/52/52 38/38/38 
f 38/38/38 37/37/37 11/11/11 
f 16/16/16 39/53/39 38/54/38 
f 38/54/38 52/55/52 16/16/16 
f 13/13/13 51/56/51 26/57/26 
f 26/57/26 25/58/25 13/13/13 
f 14/14/14 36/59/36 35/60/35 
f 35/60/35 53/61/53 14/14/14 
f 15/15/15 54/62/54 41/63/41 
f 41/63/41 40/64/40 15/15/15 
f 20/20/20 42/65/42 41/66/41 
f 41/66/41 54/67/54 20/20/20 
f 17/17/17 53/68/53 35/35/35 
f 35/35/35 34/34/34 17/17/17 
f 18/18/18 33/33/33 32/32/32 
f 32/32/32 55/69/55 18/18/18 
f 19/19/19 56/70/56 44/71/44 
f 44/71/44 43/72/43 19/19/19 
f 24/24/24 45/73/45 44/74/44 
f 44/74/44 56/75/56 24/24/24 
f 21/21/21 55/76/55 32/77/32 
f 32/77/32 31/78/31 21/21/21 
f 22/22/22 30/79/30 29/80/29 
f 29/80/29 50/81/50 22/22/22 
f 23/23/23 49/82/49 47/83/47 
f 47/83/47 46/84/46 23/23/23 
f 1/1/1 4/4/4 27/27/27 
f 27/27/27 28/28/28 1/1/1 
f 2/2/2 1/1/1 30/30/30 
f 30/30/30 31/31/31 2/2/2 
f 3/3/3 2/2/2 33/33/33 
f 33/33/33 34/34/34 3/3/3 
f 4/4/4 3/3/3 36/36/36 
f 36/36/36 25/25/25 4/4/4 
f 5/5/5 8/8/8 39/39/39 
f 39/39/39 40/40/40 5/5/5 
f 6/6/6 5/5/5 42/42/42 
f 42/42/42 43/43/43 6/6/6 
f 7/7/7 6/6/6 45/45/45 
f 45/45/45 46/46/46 7/7/7 
f 8/8/8 7/7/7 48/48/48 
f 48/48/48 37/37/37 8/8/8 
f 9/9/9 12/12/12 49/49/49 
f 49/49/49 50/50/50 9/9/9 
f 10/10/10 9/9/9 28/28/28 
f 28/28/28 27/27/27 10/10/10 
f 11/11/11 10/10/10 51/51/51 
f 51/51/51 52/52/52 11/11/11 
f 12/12/12 11/11/11 37/37/37 
f 37/37/37 48/48/48 12/12/12 
f 13/13/13 16/16/16 52/55/52 
f 52/55/52 51/56/51 13/13/13 
f 14/14/14 13/13/13 25/58/25 
f 25/58/25 36/59/36 14/14/14 
f 15/15/15 14/14/14 53/61/53 
f 53/61/53 54/62/54 15/15/15 
f 16/16/16 15/15/15 40/64/40 
f 40/64/40 39/53/39 16/16/16 
f 17/17/17 20/20/20 54/67/54 
f 54/67/54 53/68/53 17/17/17 
f 18/18/18 17/17/17 34/34/34 
f 34/34/34 33/33/33 18/18/18 
f 19/19/19 18/18/18 55/69/55 
f 55/69/55 56/70/56 19/19/19 
f 20/20/20 19/19/19 43/72/43 
f 43/72/43 42/65/42 20/20/20 
f 21/21/21 24/24/24 56/75/56 
f 56/75/56 55/76/55 21/21/21 
f 22/22/22 21/21/21 31/78/31 
f 31/78/31 30/79/30 22/22/22 
f 23/23/23 22/22/22 50/81/50 
f 50/81/50 49/82/49 23/23/23 
f 24/24/24 23/23/23 46/84/46 
f 46/84/46 45/73/45 24/24/24 
# 108 faces

