# 3ds Max Wavefront OBJ Exporter v0.97b - (c)2007 guruware
# File Created: 06.01.2016 00:49:56

#
# object Object01
#

v  -376.5485 79.7504 -0.0001
v  -154.4609 29.0096 -0.0001
v  -154.4609 26.8016 -11.1005
v  -376.5485 73.6799 -30.5181
v  -154.4610 20.5136 -20.5110
v  -376.5486 56.3928 -56.3901
v  -154.4611 11.1031 -26.7989
v  -376.5487 30.5209 -73.6772
v  -154.4612 0.0027 -29.0070
v  -376.5489 0.0028 -79.7477
v  -154.4614 -11.0978 -26.7989
v  -376.5490 -30.5153 -73.6772
v  -154.4615 -20.5083 -20.5110
v  -376.5491 -56.3873 -56.3901
v  -154.4616 -26.7962 -11.1005
v  -376.5492 -73.6744 -30.5181
v  -154.4616 -29.0042 -0.0001
v  -376.5492 -79.7449 -0.0001
v  -154.4616 -26.7962 11.1004
v  -376.5492 -73.6744 30.5180
v  -154.4615 -20.5083 20.5109
v  -376.5491 -56.3873 56.3900
v  -154.4614 -11.0978 26.7988
v  -376.5490 -30.5153 73.6771
v  -154.4612 0.0027 29.0069
v  -376.5489 0.0028 79.7476
v  -154.4611 11.1031 26.7988
v  -376.5487 30.5209 73.6771
v  -154.4610 20.5137 20.5109
v  -376.5486 56.3928 56.3900
v  -154.4609 26.8016 11.1004
v  -376.5485 73.6800 30.5180
# 32 vertices

vn 0.2227 0.9749 -0.0000
vn 0.2227 0.9007 -0.3731
vn 0.2227 0.6893 -0.6893
vn 0.2227 0.3731 -0.9007
vn 0.2227 -0.0000 -0.9749
vn 0.2227 -0.3731 -0.9007
vn 0.2227 -0.6893 -0.6893
vn 0.2227 -0.9007 -0.3731
vn 0.2227 -0.9749 -0.0000
vn 0.2227 -0.9007 0.3731
vn 0.2227 -0.6893 0.6893
vn 0.2227 -0.3731 0.9007
vn 0.2227 -0.0000 0.9749
vn 0.2227 0.3731 0.9007
vn 0.2227 0.6893 0.6893
vn 0.2227 0.9007 0.3731
# 16 vertex normals

vt 0.1927 0.0048 0.5000
vt 0.1927 0.9949 0.1819
vt 0.2546 0.9949 0.1819
vt 0.2546 0.0048 0.5000
vt 0.3165 0.9949 0.1819
vt 0.3165 0.0048 0.5000
vt 0.3784 0.9949 0.1819
vt 0.3784 0.0048 0.5000
vt 0.4403 0.9949 0.1819
vt 0.4403 0.0048 0.5000
vt 0.5022 0.9949 0.1819
vt 0.5022 0.0048 0.5000
vt 0.5640 0.9949 0.1819
vt 0.5640 0.0048 0.5000
vt 0.6259 0.9949 0.1819
vt 0.6259 0.0048 0.5000
vt 0.6878 0.9949 0.1819
vt 0.6878 0.0048 0.5000
vt 0.7497 0.9949 0.1819
vt 0.7497 0.0048 0.5000
vt 0.8116 0.9949 0.1819
vt 0.8116 0.0048 0.5000
vt 0.8734 0.9949 0.1819
vt 0.8734 0.0048 0.5000
vt 0.9353 0.9949 0.1819
vt 0.9353 0.0048 0.5000
vt 0.9972 0.9949 0.1819
vt 0.9972 0.0048 0.5000
vt 0.0071 0.0048 0.5000
vt 0.0071 0.9949 0.1819
vt 0.0690 0.9949 0.1819
vt 0.0690 0.0048 0.5000
vt 0.1309 0.9949 0.1819
vt 0.1309 0.0048 0.5000
# 34 texture coords

g Object01
s 1
f 1/1/1 2/2/1 3/3/2 4/4/2 
f 4/4/2 3/3/2 5/5/3 6/6/3 
f 6/6/3 5/5/3 7/7/4 8/8/4 
f 8/8/4 7/7/4 9/9/5 10/10/5 
f 10/10/5 9/9/5 11/11/6 12/12/6 
f 12/12/6 11/11/6 13/13/7 14/14/7 
f 14/14/7 13/13/7 15/15/8 16/16/8 
f 16/16/8 15/15/8 17/17/9 18/18/9 
f 18/18/9 17/17/9 19/19/10 20/20/10 
f 20/20/10 19/19/10 21/21/11 22/22/11 
f 22/22/11 21/21/11 23/23/12 24/24/12 
f 24/24/12 23/23/12 25/25/13 26/26/13 
f 26/26/13 25/25/13 27/27/14 28/28/14 
f 28/29/14 27/30/14 29/31/15 30/32/15 
f 30/32/15 29/31/15 31/33/16 32/34/16 
f 32/34/16 31/33/16 2/2/1 1/1/1 
# 16 polygons

